<svg xmlns="http://www.w3.org/2000/svg" viewBox="0 0 325.69 45.64"><defs><style>.cls-1{fill:#1fcd7f;}</style></defs><g id="Layer_2" data-name="Layer 2"><g id="Layer_1-2" data-name="Layer 1"><path class="cls-1" d="M0,43.77,8.57,0l14,31.64L37,0l7.7,43.77h-6.3L34.49,19.2l-12,26.44L10.73,19.17,6.35,43.77Z"/><path class="cls-1" d="M76.36,9.12l-5,3a8.58,8.58,0,0,0-2.67-3.17,7.08,7.08,0,0,0-7.64.61,4.47,4.47,0,0,0-1.69,3.58q0,3,4.43,4.8l4.06,1.66a17.37,17.37,0,0,1,7.25,4.9,11,11,0,0,1,2.29,7.08,12.43,12.43,0,0,1-3.74,9.28,12.84,12.84,0,0,1-9.36,3.69,12.52,12.52,0,0,1-8.75-3.14,14.43,14.43,0,0,1-4.25-8.83l6.22-1.37A10.55,10.55,0,0,0,59,36.12a7,7,0,0,0,10.31.71A6.66,6.66,0,0,0,71.22,32a6.88,6.88,0,0,0-.33-2.18,5.51,5.51,0,0,0-1-1.82,8.3,8.3,0,0,0-1.81-1.55A16.39,16.39,0,0,0,65.42,25l-3.93-1.63q-8.35-3.54-8.36-10.34a9.8,9.8,0,0,1,3.51-7.67,12.66,12.66,0,0,1,8.72-3.11Q72.41,2.27,76.36,9.12Z"/><path class="cls-1" d="M108.32,33.88H90.89l-4.54,9.89H79.73L99.88.5l19.43,43.27h-6.72Zm-2.51-5.77-6-13.85L93.45,28.11Z"/><path class="cls-1" d="M139.64,43.77,148.21,0l14,31.64L176.66,0l7.7,43.77h-6.3L174.13,19.2l-12,26.44L150.37,19.17,146,43.77Z"/><path class="cls-1" d="M216.9,33.88H199.47l-4.54,9.89h-6.62L208.46.5l19.43,43.27h-6.72Zm-2.51-5.77-6-13.85L202,28.11Z"/><path class="cls-1" d="M239.12,19.3,255,3.06h8.2l-18.4,18.43,18.51,22.28h-8.23L240.39,25.66l-1.27,1.26V43.77H233V3.06h6.14Z"/><path class="cls-1" d="M291.23,8.83H274.9v9.79h15.85v5.77H274.9V38h16.33v5.77H268.76V3.06h22.47Z"/><path class="cls-1" d="M313.08,26.42l12.61,17.35h-7.52L306.54,27.11h-1.1V43.77h-6.15V3.06h7.2q8.07,0,11.66,3a11.15,11.15,0,0,1,4,8.91,11.59,11.59,0,0,1-2.48,7.44A11.05,11.05,0,0,1,313.08,26.42Zm-7.64-4.67h1.95q8.73,0,8.73-6.67,0-6.24-8.49-6.25h-2.19Z"/></g></g></svg>